<svg width="40" height="23" viewBox="0 0 40 23" fill="none" xmlns="http://www.w3.org/2000/svg">
<g id="Rede">
<path d="M0.676276 5.26925L17.6155 20.0768C18.6745 21.0031 19.7354 21.4412 20.768 21.3772C22.2763 21.2815 23.2738 20.1355 23.2831 20.1249L39.2967 5.00072L40 5.57077L24.0359 20.6448C23.8723 20.8296 22.6919 22.0911 20.8472 22.2118C20.7528 22.2184 20.6591 22.2224 20.5641 22.2224C19.3349 22.2224 18.1163 21.7005 16.9379 20.6706L0 5.8624L0.676276 5.26925Z" fill="#CDA5F8"/>
<path d="M12.4507 6.84285C10.7767 6.84285 9.41968 5.4858 9.41968 3.81181C9.41968 2.13781 10.7767 0.780762 12.4507 0.780762C14.1247 0.780762 15.4818 2.13781 15.4818 3.81181C15.4818 5.4858 14.1247 6.84285 12.4507 6.84285Z" fill="#CDA5F8"/>
<path d="M22.1502 18.1581C22.1456 18.1634 22.141 18.17 22.1357 18.1733C22.0638 18.2445 21.9886 18.3112 21.9114 18.3719C21.753 18.5137 21.5947 18.6556 21.4363 18.7981C20.4552 19.6756 19.2069 19.2362 18.6256 18.4081C18.5135 18.3303 18.4053 18.2478 18.3037 18.1535C16.4464 16.4552 14.5884 14.7556 12.7331 13.0553C12.6276 12.9986 12.5233 12.9313 12.4224 12.8416C10.1336 10.7936 7.84479 8.74628 5.55798 6.69832C4.16518 5.4533 6.21644 3.41655 7.60199 4.65497C9.24617 6.12562 10.889 7.59628 12.5332 9.06694C12.5418 9.05968 12.5477 9.05044 12.5556 9.04252C13.6456 7.96708 15.299 8.06605 16.389 9.06298C18.1235 10.6484 19.8561 12.2346 21.5887 13.8187C24.8817 10.8708 28.1747 7.92287 31.467 4.97562C33.1956 3.42645 35.7602 5.97255 34.0204 7.5303C30.063 11.074 26.1069 14.6157 22.1502 18.1581Z" fill="#CDA5F8"/>
</g>
</svg>
